<?xml version="1.0" encoding="utf-8"?>
<!-- Generator: Adobe Illustrator 21.1.0, SVG Export Plug-In . SVG Version: 6.00 Build 0)  -->
<svg version="1.1" id="Layer_1" xmlns="http://www.w3.org/2000/svg" xmlns:xlink="http://www.w3.org/1999/xlink" x="0px" y="0px"
	 viewBox="0 0 500 500" style="enable-background:new 0 0 500 500;" xml:space="preserve">
<style type="text/css">
	.st0{clip-path:url(#SVGID_2_);}
	.st1{clip-path:url(#SVGID_4_);}
	.st2{clip-path:url(#SVGID_6_);}
	.st3{clip-path:url(#SVGID_8_);}
	.st4{clip-path:url(#SVGID_10_);}
</style>
<g>
	<defs>
		<rect id="SVGID_1_" x="11.4" y="189.8" width="478" height="120"/>
	</defs>
	<clipPath id="SVGID_2_">
		<use xlink:href="#SVGID_1_"  style="overflow:visible;"/>
	</clipPath>
	<path class="st0" d="M425.6,303.2c6.4,0,12.1-1.3,17.1-4c4.9-2.7,9.1-6.4,12.5-11.2c3.4-4.8,5.9-10.5,7.7-17
		c1.7-6.6,2.6-13.7,2.6-21.5c0-7.7-0.9-14.8-2.6-21.3c-1.7-6.4-4.3-12-7.7-16.6c-3.4-4.7-7.6-8.3-12.5-10.8
		c-4.9-2.6-10.6-3.9-17.1-3.9c-6.6,0-12.3,1.3-17.2,3.9c-4.9,2.6-9.1,6.2-12.5,10.8c-3.4,4.7-5.9,10.2-7.6,16.6
		c-1.7,6.4-2.5,13.5-2.5,21.3c0,7.8,0.8,15,2.5,21.5c1.7,6.6,4.2,12.2,7.6,17c3.4,4.8,7.5,8.5,12.5,11.2
		C413.3,301.8,419,303.2,425.6,303.2z M425.6,308.8c-8.7,0-16.8-1.6-24.4-4.7c-7.5-3.1-14.1-7.4-19.7-12.8s-9.9-11.7-13.1-18.9
		c-3.2-7.2-4.8-14.9-4.8-23.1c0-5.4,0.7-10.5,2.2-15.5c1.4-5,3.5-9.6,6.1-13.9s5.9-8.2,9.6-11.7c3.8-3.5,7.9-6.6,12.5-9.1
		c4.6-2.5,9.5-4.5,14.9-5.8c5.3-1.4,10.9-2.1,16.6-2.1c5.8,0,11.4,0.7,16.7,2.1c5.3,1.4,10.3,3.3,14.9,5.8c4.6,2.5,8.8,5.5,12.5,9.1
		c3.7,3.5,6.9,7.4,9.6,11.7c2.7,4.3,4.7,8.9,6.2,13.9c1.4,5,2.2,10.1,2.2,15.5c0,5.5-0.7,10.7-2.2,15.8c-1.4,5-3.5,9.7-6.2,14.1
		c-2.7,4.4-5.9,8.4-9.6,12c-3.7,3.6-7.9,6.7-12.5,9.3c-4.6,2.6-9.6,4.6-14.9,6C436.9,308,431.4,308.8,425.6,308.8z M286.1,303.2
		c6.4,0,12.1-1.3,17.1-4c4.9-2.7,9.1-6.4,12.5-11.2c3.4-4.8,5.9-10.5,7.7-17c1.7-6.6,2.6-13.7,2.6-21.5c0-7.7-0.9-14.8-2.6-21.3
		c-1.7-6.4-4.3-12-7.7-16.6c-3.4-4.7-7.6-8.3-12.5-10.8s-10.6-3.9-17.1-3.9c-6.6,0-12.3,1.3-17.2,3.9c-4.9,2.6-9.1,6.2-12.5,10.8
		c-3.4,4.7-5.9,10.2-7.6,16.6c-1.7,6.4-2.5,13.5-2.5,21.3c0,7.8,0.8,15,2.5,21.5c1.7,6.6,4.2,12.2,7.6,17c3.4,4.8,7.5,8.5,12.5,11.2
		C273.8,301.8,279.6,303.2,286.1,303.2z M286.1,308.8c-8.7,0-16.8-1.6-24.4-4.7c-7.5-3.1-14.1-7.4-19.7-12.8s-9.9-11.7-13.1-18.9
		c-3.2-7.2-4.8-14.9-4.8-23.1c0-5.4,0.7-10.5,2.2-15.5c1.4-5,3.5-9.6,6.1-13.9s5.9-8.2,9.6-11.7c3.8-3.5,7.9-6.6,12.5-9.1
		c4.6-2.5,9.5-4.5,14.9-5.8c5.3-1.4,10.9-2.1,16.6-2.1c5.8,0,11.4,0.7,16.7,2.1c5.3,1.4,10.3,3.3,14.9,5.8c4.6,2.5,8.8,5.5,12.5,9.1
		c3.7,3.5,6.9,7.4,9.6,11.7s4.7,8.9,6.2,13.9c1.4,5,2.2,10.1,2.2,15.5c0,5.5-0.7,10.7-2.2,15.8c-1.4,5-3.5,9.7-6.2,14.1
		s-5.9,8.4-9.6,12s-7.9,6.7-12.5,9.3c-4.6,2.6-9.6,4.6-14.9,6C297.5,308,291.9,308.8,286.1,308.8z M211.9,193.8v7.3h-59.2v40.2h39.6
		v7.3h-39.6v50.3h59.2v7.3h-78.1V193.8H211.9z M32.3,193.8l42.4,89.4l39.4-89.4h9l-51,115h-4.9l-54.8-115H32.3z"/>
</g>
<g>
	<defs>
		<rect id="SVGID_3_" x="285.9" y="225" width="26" height="26"/>
	</defs>
	<clipPath id="SVGID_4_">
		<use xlink:href="#SVGID_3_"  style="overflow:visible;"/>
	</clipPath>
	<circle class="st1" cx="298.3" cy="238.6" r="11.4"/>
</g>
<g>
	<defs>
		<rect id="SVGID_5_" x="429.9" y="226" width="26" height="25"/>
	</defs>
	<clipPath id="SVGID_6_">
		<use xlink:href="#SVGID_5_"  style="overflow:visible;"/>
	</clipPath>
	<circle class="st2" cx="442.3" cy="238.6" r="11.4"/>
</g>
<g>
	<defs>
		<rect id="SVGID_7_" x="247.3" y="157" width="73" height="21"/>
	</defs>
	<clipPath id="SVGID_8_">
		<use xlink:href="#SVGID_7_"  style="overflow:visible;"/>
	</clipPath>
	<path class="st3" d="M248.3,168.1c14.5-5.6,21.4-7.6,30.7-8.3c12-0.9,24.4,1.7,39.2,8.4l-4,8.7c-13.4-6.1-24.2-8.3-34.5-7.6
		c-8.1,0.6-14.3,2.4-28,7.7L248.3,168.1z"/>
</g>
<g>
	<defs>
		<rect id="SVGID_9_" x="386.8" y="157" width="73" height="21"/>
	</defs>
	<clipPath id="SVGID_10_">
		<use xlink:href="#SVGID_9_"  style="overflow:visible;"/>
	</clipPath>
	<path class="st4" d="M387.8,168.1c14.5-5.6,21.4-7.6,30.7-8.3c12-0.9,24.4,1.7,39.2,8.4l-4,8.7c-13.4-6.1-24.2-8.3-34.5-7.6
		c-8.1,0.6-14.3,2.4-28,7.7L387.8,168.1z"/>
</g>
</svg>
